<svg xmlns:xlink="http://www.w3.org/1999/xlink" xmlns="http://www.w3.org/2000/svg" version="1.1" viewBox="0 0 1025 1024" height="1024px" width="1025px">
    <title>发送成功</title>
    <defs>
        <linearGradient id="linearGradient-1" y2="0%" x2="50%" y1="100%" x1="50%">
            <stop offset="0%" stop-opacity="0.1" stop-color="#FFFFFF"></stop>
            <stop offset="13%" stop-opacity="0.19" stop-color="#FBFDFF"></stop>
            <stop offset="41%" stop-opacity="0.43" stop-color="#F1F7FF"></stop>
            <stop offset="81%" stop-opacity="0.82" stop-color="#E1EEFF"></stop>
            <stop offset="100%" stop-color="#D9E9FF"></stop>
        </linearGradient>
        <linearGradient id="linearGradient-2" y2="-0.0579832828%" x2="50%" y1="100.122278%" x1="50%">
            <stop offset="0%" stop-opacity="0.1" stop-color="#FFFFFF"></stop>
            <stop offset="100%" stop-color="#D9E9FF"></stop>
        </linearGradient>
        <linearGradient id="linearGradient-3" y2="0.00649473815%" x2="50.0843871%" y1="100%" x1="50.0843871%">
            <stop offset="0%" stop-opacity="0.1" stop-color="#FFFFFF"></stop>
            <stop offset="14%" stop-opacity="0.27" stop-color="#F8FBFF"></stop>
            <stop offset="37%" stop-opacity="0.52" stop-color="#EDF5FF"></stop>
            <stop offset="58%" stop-opacity="0.73" stop-color="#E4F0FF"></stop>
            <stop offset="76%" stop-opacity="0.88" stop-color="#DEECFF"></stop>
            <stop offset="91%" stop-opacity="0.97" stop-color="#DAEAFF"></stop>
            <stop offset="100%" stop-color="#D9E9FF"></stop>
        </linearGradient>
        <linearGradient id="linearGradient-4" y2="-0.0811277354%" x2="50.0045895%" y1="99.9311993%" x1="50.0045895%">
            <stop offset="0%" stop-opacity="0.1" stop-color="#FFFFFF"></stop>
            <stop offset="9%" stop-opacity="0.13" stop-color="#FEFEFF"></stop>
            <stop offset="23%" stop-opacity="0.21" stop-color="#FBFCFF"></stop>
            <stop offset="40%" stop-opacity="0.33" stop-color="#F5F9FF"></stop>
            <stop offset="59%" stop-opacity="0.51" stop-color="#EEF5FF"></stop>
            <stop offset="79%" stop-opacity="0.74" stop-color="#E4EFFF"></stop>
            <stop offset="100%" stop-color="#D9E9FF"></stop>
        </linearGradient>
        <linearGradient id="linearGradient-5" y2="100%" x2="50%" y1="0%" x1="50%">
            <stop offset="0%" stop-color="#AAD3FE"></stop>
            <stop offset="100%" stop-color="#3C9BFC"></stop>
        </linearGradient>
        <linearGradient id="linearGradient-6" y2="100%" x2="50%" y1="0%" x1="50%">
            <stop offset="0%" stop-color="#B7D9FE"></stop>
            <stop offset="100%" stop-color="#47A1FD"></stop>
        </linearGradient>
        <linearGradient id="linearGradient-7" y2="100%" x2="50%" y1="0%" x1="50%">
            <stop offset="0%" stop-color="#1A4486"></stop>
            <stop offset="100%" stop-color="#365E9D"></stop>
        </linearGradient>
        <linearGradient id="linearGradient-8" y2="100%" x2="50%" y1="16.1460364%" x1="7.77940102%">
            <stop offset="0%" stop-color="#53A4FC"></stop>
            <stop offset="100%" stop-color="#53A4FC"></stop>
        </linearGradient>
        <linearGradient id="linearGradient-9" y2="58.173723%" x2="16.9978621%" y1="39.9125676%" x1="84.900138%">
            <stop offset="0%" stop-color="#8AD2FC"></stop>
            <stop offset="100%" stop-color="#5AAAFC"></stop>
        </linearGradient>
    </defs>
    <g transform="translate(0.000000, 0.000000)" fill-rule="evenodd" fill="none" stroke-width="1" stroke="none" id="发送成功">
        <rect height="1024" width="1024" y="0" x="0" fill="#FFFFFF"></rect>
        <rect height="1024" width="1024" y="0" x="0" opacity="0" fill-rule="nonzero" fill="#F4F7F9" id="矩形"></rect>
        <polygon points="100.338645 606 106 667 71 662.931464" fill-rule="nonzero" fill="#E4EFFF" id="路径"></polygon>
        <polygon points="148.480744 564 158 665 94 658.708564" fill-rule="nonzero" fill="#E4EFFF" id="路径"></polygon>
        <ellipse ry="162" rx="512" cy="742" cx="512" fill-rule="nonzero" fill="url(#linearGradient-1)" id="椭圆形"></ellipse>
        <polygon points="904.847021 606 935 662.390418 900 670" fill-rule="nonzero" fill="#F3F8FF" id="路径"></polygon>
        <path fill-rule="nonzero" fill="url(#linearGradient-2)" id="路径" d="M167.226695,342.026586 C163.492711,322.014575 146.009937,307.640823 125.848517,308.006834 C115.061593,307.956383 104.650299,312.004239 96.6816737,319.346752 C92.2164177,317.314169 87.3751145,316.260961 82.4772245,316.256625 C66.9584474,316.009657 53.3722107,326.731143 49.8575212,341.998237 C37.9307461,344.661244 29.3304481,355.181909 29,367.513052 C29.4585952,382.518847 41.8172108,394.341524 56.6790254,393.99176 L160.320975,393.99176 C175.188744,394.357154 187.556538,382.525697 188,367.513052 C187.676143,355.214173 179.115739,344.711538 167.226695,342.026586 L167.226695,342.026586 Z"></path>
        <path fill-rule="nonzero" fill="url(#linearGradient-3)" id="路径" d="M768.714498,203.095574 C763.32672,194.654828 754.21547,189.411837 744.306491,189.05019 C738.536478,180.120349 728.651433,174.817417 718.124893,175.004806 C709.6853,174.919628 701.567448,178.284389 695.603086,184.339848 C692.872347,183.456175 690.023822,183.003641 687.157409,182.998114 C673.897696,182.998114 662.946468,192.304609 661.820379,204.06619 C651.712515,206.509187 644.434781,215.463021 644,225.990693 C644,238.665795 655.457969,249 669.337032,249 L766.659384,249 C780.735511,249 791.996416,238.665795 791.996416,225.990693 C792.221633,213.943636 781.805297,204.037643 768.714498,203.095574 Z"></path>
        <path fill-rule="nonzero" fill="url(#linearGradient-4)" id="路径" d="M949.623905,171.742852 C940.122562,152.167323 920.286816,139.710453 898.509647,139.643039 C886.380486,139.669114 874.582387,143.597854 864.863399,150.847162 C853.298536,128.313014 828.182324,116.167009 803.315887,121.083265 C778.449449,125.999521 759.857514,146.78691 757.756177,172.022955 C731.006664,180.455136 714.408255,207.114064 718.662885,234.81122 C722.917516,262.508377 746.754,282.9685 774.803609,283 L933.053129,283 C961.264971,283.053292 985.245783,262.424685 989.381219,234.545632 C993.516652,206.666579 976.554782,179.976968 949.53979,171.854893 L949.623905,171.742852 Z"></path>
        <g transform="translate(313.000000, 351.000000)" id="飞人">
            <g transform="translate(0.000000, 52.000000)" id="Group-2">
                <polygon points="0 152.422615 399 0 106.403479 197.483333" fill="url(#linearGradient-5)" id="Path-24"></polygon>
                <polygon points="106.403479 197.483333 106.403479 271.948874 145.945642 224.18395 397.406531 1.39981247" fill="#0874E0" id="Path-26"></polygon>
                <polygon points="145.945642 224.18395 399 0 302.069662 289" fill="url(#linearGradient-6)" id="Path-25"></polygon>
            </g>
            <path fill="#003A8C" id="Path-41" d="M171.197294,203 C174.66932,203 179.222022,200.725355 184.855398,196.176065 C185.331749,192.531097 184.631195,190.491468 182.753734,190.057179 C180.876274,189.622889 175.62754,191.662518 167.007531,196.176065 C166.883979,199.342864 168.280567,201.617509 171.197294,203 Z"></path>
            <path fill="#003A8C" id="Path-41-Copy" d="M235.197294,215 C238.66932,215 243.222022,212.725355 248.855398,208.176065 C249.331749,204.531097 248.631195,202.491468 246.753734,202.057179 C244.876274,201.622889 239.62754,203.662518 231.007531,208.176065 C230.883979,211.342864 232.280567,213.617509 235.197294,215 Z"></path>
            <path fill-rule="nonzero" fill="#001529" id="路径-2" d="M232.081797,206.957149 C231.483658,207.303631 232.468789,211.173497 233.274739,212.624618 C234.75624,214.89248 236.471859,214.311444 237.195675,214.087601 C237.977013,213.516865 238.754287,213.449096 239.562861,213.184507 C240.565102,213.006441 242,212.299124 242,212.299124 C241.581975,212.941748 239.809921,213.822131 239.21607,213.951675 C238.622219,214.081219 237.947207,214.413303 237.033686,214.80121 C234.607612,215.418068 233.577962,214.537097 232.6707,213.01748 C232.205628,212.238736 230.586393,208.49408 230.801411,207.937658 C231.000481,207.425007 231.697766,207.193687 232.081797,206.957149 Z M176.183092,189.109817 C176.183092,189.109817 174.406173,188.401405 171.806975,191.833907 C171.065834,192.895797 170.404725,193.016589 169.587553,194.019886 C168.770382,195.023183 165.476439,195.951646 168.294756,199.893 C170.125057,202.113651 172.036978,203.062136 173.011593,202.470976 L173.102,202.408 L172.963492,202.504606 C172.402436,202.872029 171.929754,202.9546 171.036331,202.920952 C169.976471,202.887152 168.268144,201.87111 167.265395,200.577029 C165.323945,198.072836 165.615258,194.834882 168.14803,194.55782 C169.343016,193.371995 170.076269,192.882617 170.657576,192.021996 C171.246891,191.171872 174.981439,188.420012 176.183092,189.109817 Z"></path>
            <path fill="url(#linearGradient-7)" id="Path-23" d="M188.323214,106.252875 C209.512118,112.823892 223.318003,112.406267 229.74087,105 C229.70918,105.15921 243.333029,196.198216 239.229378,207.84034 C237.689513,210.110954 235.305729,210.591117 232.078024,209.280828 L207.560727,129.914621 L178.927409,197.630644 C174.5788,199.169668 171.269663,198.193741 169,194.702863 C169,190.253362 175.441071,160.770032 188.323214,106.252875 Z"></path>
            <path fill="#FACEBB" id="Path-28" d="M191.819884,13 L211,13 C209.955295,16.2780501 209.733707,18.2891401 210.335235,19.03327 C210.797332,19.6049136 210.177986,20.2298408 210.108611,20.682624 C208.872746,28.7486158 207.028266,32.7816116 204.575171,32.7816116 C201.438487,32.7816116 199.839505,35.1877411 199.778227,40 L187,40 L189.478562,25.245808 L191.819884,13 Z"></path>
            <path fill="#FACEBB" id="Path-30" d="M242,61.3834675 C246.806785,62.5865309 252.025698,62.0289066 257.656738,59.7105947 C260.758377,57.4110874 268.383442,50.4266779 280.531931,38.7573664 C282.074955,36.1164443 282.401624,34.1345882 281.51194,32.8117981 C280.52297,31.9483695 279.59165,29.9110259 275.887518,31.7363247 C265.996119,36.4170191 257.680011,42.2633082 250.939191,49.2751918 L246.036909,50.288763 L242,61.3834675 Z"></path>
            <path fill="url(#linearGradient-8)" id="Path-27" d="M185.256946,40.6396098 C198.216916,41.8228702 206.662803,41.2763336 210.594606,39 C209.726331,39.9348004 234.512321,54.4594696 244.437776,50.4419441 C244.630231,50.3640439 244.817191,50.2797887 244.998362,50.1889683 C245.09249,51.2826994 241.099415,61.905934 241.099415,61.905934 C241.099415,61.905934 234.942028,62.7156164 222.627255,64.3349812 C234.153972,91.5385168 236.390332,106.420396 229.336335,108.98062 C221.595354,114.339793 208.132799,114.339793 188.948672,108.98062 C187.994519,109.235528 187.501077,109.235528 187.468347,108.98062 C184.322028,84.4763861 176.602536,65.0934422 178.212806,61.905934 C175.294601,58.7833953 177.642647,51.6946206 185.256946,40.6396098 Z"></path>
            <path fill="#003A8C" id="Path-29" d="M187.408886,33.4523601 C188.342389,35.51588 191.059734,35.51588 195.560922,33.4523601 C197.426859,29.3665792 197.186487,26.3444014 194.839806,24.3858265 C191.319786,21.4479643 194.609579,20.1225421 194.641732,19.1285935 C194.713349,16.9146596 195.019746,15.8076926 195.560922,15.8076926 C197.432072,15.8076926 217,14.5965038 217,13.1658742 C217,11.7352447 215.846561,8.15191704 211.201515,8.15191704 C209.610966,2.82075091 202.825338,0.10344523 190.844631,0 C186.819596,0.9449916 184.576523,3.66229728 184.115414,8.15191704 C183.423751,14.8863467 186.008632,30.3570803 187.408886,33.4523601 Z"></path>
            <path fill="url(#linearGradient-9)" id="Path-31" d="M73.5230757,89.7888644 C88.9089557,105.713967 110.094778,113.057677 151.525597,116 C170.67452,112.063784 192.047496,54.1942517 223.848058,63.8445608 C224.64928,62.359839 223.616298,43.7191502 186.239411,40 C182.193216,42.9000313 135.375945,65.7741848 120.065837,65.7741848 C113.817148,65.7741848 97.0666287,65.1751215 86.8393894,71.1756465 C80.361241,74.9765053 70.6338096,78.1911345 73.5230757,89.7888644 Z"></path>
        </g>
    </g>
</svg>