<svg xmlns:xlink="http://www.w3.org/1999/xlink" xmlns="http://www.w3.org/2000/svg" version="1.1" viewBox="0 0 1024 1024" height="1024px" width="1024px">
    <title>提交成功</title>
    <defs>
        <linearGradient id="linearGradient-1" y2="0%" x2="50%" y1="100%" x1="50%">
            <stop offset="0%" stop-opacity="0.1" stop-color="#FFFFFF"></stop>
            <stop offset="13%" stop-opacity="0.19" stop-color="#FBFDFF"></stop>
            <stop offset="41%" stop-opacity="0.43" stop-color="#F1F7FF"></stop>
            <stop offset="81%" stop-opacity="0.82" stop-color="#E1EEFF"></stop>
            <stop offset="100%" stop-color="#D9E9FF"></stop>
        </linearGradient>
        <linearGradient id="linearGradient-2" y2="-0.0579832828%" x2="50%" y1="100.122278%" x1="50%">
            <stop offset="0%" stop-opacity="0.1" stop-color="#FFFFFF"></stop>
            <stop offset="100%" stop-color="#D9E9FF"></stop>
        </linearGradient>
        <linearGradient id="linearGradient-3" y2="0.00649473815%" x2="50.0843871%" y1="100%" x1="50.0843871%">
            <stop offset="0%" stop-opacity="0.1" stop-color="#FFFFFF"></stop>
            <stop offset="14%" stop-opacity="0.27" stop-color="#F8FBFF"></stop>
            <stop offset="37%" stop-opacity="0.52" stop-color="#EDF5FF"></stop>
            <stop offset="58%" stop-opacity="0.73" stop-color="#E4F0FF"></stop>
            <stop offset="76%" stop-opacity="0.88" stop-color="#DEECFF"></stop>
            <stop offset="91%" stop-opacity="0.97" stop-color="#DAEAFF"></stop>
            <stop offset="100%" stop-color="#D9E9FF"></stop>
        </linearGradient>
        <linearGradient id="linearGradient-4" y2="-0.0811277354%" x2="50.0045895%" y1="99.9311993%" x1="50.0045895%">
            <stop offset="0%" stop-opacity="0.1" stop-color="#FFFFFF"></stop>
            <stop offset="9%" stop-opacity="0.13" stop-color="#FEFEFF"></stop>
            <stop offset="23%" stop-opacity="0.21" stop-color="#FBFCFF"></stop>
            <stop offset="40%" stop-opacity="0.33" stop-color="#F5F9FF"></stop>
            <stop offset="59%" stop-opacity="0.51" stop-color="#EEF5FF"></stop>
            <stop offset="79%" stop-opacity="0.74" stop-color="#E4EFFF"></stop>
            <stop offset="100%" stop-color="#D9E9FF"></stop>
        </linearGradient>
        <linearGradient id="linearGradient-5" y2="100%" x2="50%" y1="0%" x1="50%">
            <stop offset="0%" stop-color="#D8EAFE"></stop>
            <stop offset="100%" stop-color="#3597FB"></stop>
        </linearGradient>
        <linearGradient id="linearGradient-6" y2="54.8693072%" x2="8.72491868%" y1="56.3049151%" x1="57.662749%">
            <stop offset="0%" stop-color="#ACD3FE"></stop>
            <stop offset="100%" stop-color="#3A9AFB"></stop>
        </linearGradient>
        <linearGradient id="linearGradient-7" y2="50%" x2="100%" y1="60.314409%" x1="37.6202177%">
            <stop offset="0%" stop-color="#ABD3FE"></stop>
            <stop offset="100%" stop-color="#3A9AFB"></stop>
        </linearGradient>
        <linearGradient id="linearGradient-8" y2="100%" x2="50%" y1="0%" x1="50%">
            <stop offset="0%" stop-color="#3597FB"></stop>
            <stop offset="100%" stop-color="#3A9AFB"></stop>
        </linearGradient>
        <linearGradient id="linearGradient-9" y2="100%" x2="50%" y1="0%" x1="50%">
            <stop offset="0%" stop-color="#143E81"></stop>
            <stop offset="100%" stop-color="#385F9E"></stop>
        </linearGradient>
        <linearGradient id="linearGradient-10" y2="83.3270616%" x2="68.795522%" y1="31.3541029%" x1="40.2422616%">
            <stop offset="0%" stop-color="#53A4FC"></stop>
            <stop offset="100%" stop-color="#53A4FC"></stop>
        </linearGradient>
    </defs>
    <g transform="translate(0.000000, 0.000000)" fill-rule="evenodd" fill="none" stroke-width="1" stroke="none" id="提交成功">
        <rect height="1024" width="1024" y="0" x="0" fill="#FFFFFF"></rect>
        <rect height="1024" width="1024" y="0" x="0" opacity="0" fill-rule="nonzero" fill="#F4F7F9" id="矩形"></rect>
        <polygon points="100.338645 606 106 667 71 662.931464" fill-rule="nonzero" fill="#E4EFFF" id="路径"></polygon>
        <polygon points="148.480744 564 158 665 94 658.708564" fill-rule="nonzero" fill="#E4EFFF" id="路径"></polygon>
        <ellipse ry="162" rx="512" cy="742" cx="512" fill-rule="nonzero" fill="url(#linearGradient-1)" id="椭圆形"></ellipse>
        <polygon points="904.847021 606 935 662.390418 900 670" fill-rule="nonzero" fill="#F3F8FF" id="路径"></polygon>
        <path fill-rule="nonzero" fill="url(#linearGradient-2)" id="路径" d="M167.226695,342.026586 C163.492711,322.014575 146.009937,307.640823 125.848517,308.006834 C115.061593,307.956383 104.650299,312.004239 96.6816737,319.346752 C92.2164177,317.314169 87.3751145,316.260961 82.4772245,316.256625 C66.9584474,316.009657 53.3722107,326.731143 49.8575212,341.998237 C37.9307461,344.661244 29.3304481,355.181909 29,367.513052 C29.4585952,382.518847 41.8172108,394.341524 56.6790254,393.99176 L160.320975,393.99176 C175.188744,394.357154 187.556538,382.525697 188,367.513052 C187.676143,355.214173 179.115739,344.711538 167.226695,342.026586 L167.226695,342.026586 Z"></path>
        <path fill-rule="nonzero" fill="url(#linearGradient-3)" id="路径" d="M768.714498,203.095574 C763.32672,194.654828 754.21547,189.411837 744.306491,189.05019 C738.536478,180.120349 728.651433,174.817417 718.124893,175.004806 C709.6853,174.919628 701.567448,178.284389 695.603086,184.339848 C692.872347,183.456175 690.023822,183.003641 687.157409,182.998114 C673.897696,182.998114 662.946468,192.304609 661.820379,204.06619 C651.712515,206.509187 644.434781,215.463021 644,225.990693 C644,238.665795 655.457969,249 669.337032,249 L766.659384,249 C780.735511,249 791.996416,238.665795 791.996416,225.990693 C792.221633,213.943636 781.805297,204.037643 768.714498,203.095574 Z"></path>
        <path fill-rule="nonzero" fill="url(#linearGradient-4)" id="路径" d="M949.623905,171.742852 C940.122562,152.167323 920.286816,139.710453 898.509647,139.643039 C886.380486,139.669114 874.582387,143.597854 864.863399,150.847162 C853.298536,128.313014 828.182324,116.167009 803.315887,121.083265 C778.449449,125.999521 759.857514,146.78691 757.756177,172.022955 C731.006664,180.455136 714.408255,207.114064 718.662885,234.81122 C722.917516,262.508377 746.754,282.9685 774.803609,283 L933.053129,283 C961.264971,283.053292 985.245783,262.424685 989.381219,234.545632 C993.516652,206.666579 976.554782,179.976968 949.53979,171.854893 L949.623905,171.742852 Z"></path>
        <g transform="translate(380.000000, 334.000000)" id="人物">
            <path fill="url(#linearGradient-5)" id="Path-35" d="M0,146.955557 L141.237104,262 L293,144.242453 L148.66513,-3.48356533 C147.507239,-4.66866157 145.607872,-4.69071531 144.422776,-3.53282373 C144.399756,-3.51033239 144.377099,-3.48747207 144.354815,-3.46425167 L0,146.955557 L0,146.955557 Z"></path>
            <rect rx="3" height="207" width="182" y="45" x="56" fill="#FFFFFF" id="Rectangle"></rect>
            <polygon points="0 146 0 353 293 353" fill="url(#linearGradient-6)" id="Path-32"></polygon>
            <polygon points="293 144 293 354 0 354" fill="url(#linearGradient-7)" id="Path-33"></polygon>
            <path fill="url(#linearGradient-8)" id="Path-34" d="M0,353 L293,352.127354 L149.291475,198.38119 C148.160081,197.170771 146.261667,197.106709 145.051248,198.238103 C145.002924,198.283272 144.956108,198.330027 144.910875,198.378291 L0,353 L0,353 Z"></path>
            <g transform="translate(106.000000, 100.000000)" id="审核通过">
                <circle r="32" cy="32" cx="36" fill="#D3E9FE" id="Oval"></circle>
                <polyline points="15 31.5 28.6419743 43 56 20" stroke-linecap="round" stroke-width="6" stroke="#0874E0" id="Path-36"></polyline>
                <g transform="translate(0.000000, 64.000000)" id="人物">
                    <path fill="#003A8C" id="Path-43" d="M104.477277,195.622902 C101.903137,199.321286 100.68713,201.734099 100.829255,202.861342 C101.738033,205.640232 110.046481,202.69269 111.467256,199.990318 C111.467256,197.078707 110.615874,194.630248 108.913109,192.644939 L104.477277,195.622902 Z"></path>
                    <path fill="#003A8C" id="Path-44" d="M64.894282,202.585368 C59.84226,206.698672 59.84226,208.755324 64.894282,208.755324 C67.3213982,207.80405 69.4158588,206.775724 71.1776637,205.670346 C70.698095,203.979291 70.0859929,202.950965 69.3413571,202.585368 C68.5967214,202.219771 67.1143631,202.219771 64.894282,202.585368 Z"></path>
                    <path fill="url(#linearGradient-9)" id="Path-38" d="M44.3179352,114.494511 L61.9144821,201.59802 C62.0537625,205.533247 64.6637071,206.517054 69.7443159,204.549441 C71.2021163,198.068645 71.2021163,176.106072 69.7443159,138.661722 L103.184488,196.214015 C110.495896,198.405322 112.966831,196.20916 110.597294,189.625528 C108.227756,183.041897 99.0419031,153.975649 83.0397354,102.426784 C77.7819563,109.74378 72.921489,114.097753 68.4583335,115.488705 C63.9951781,116.879656 55.9483786,116.548258 44.3179352,114.494511 Z"></path>
                    <path fill="#FACEBB" id="Path-42-Copy" d="M65.5303692,6.06144505 C64.2921574,4.63484053 63.5566642,3.37058659 63.3238897,2.26868323 C63.1992937,0.864266516 64.0062289,-0.91386049 66.476443,0.545097465 C67.5465969,2.15936878 68.2136102,3.35387128 68.4774828,4.12860497 L65.5303692,6.06144505 Z"></path>
                    <path fill="url(#linearGradient-10)" id="Path-37" d="M6.55928415,23.6434346 C2.15212036,24.6006797 1.05032941,26.5334513 3.2539113,29.4417496 C6.55928415,33.8041971 32.1872096,66.6715782 32.1872096,74.3464181 C32.1872096,82.0212579 28.3859786,118.537169 57.4006402,118.537169 C76.7437479,118.537169 85.772671,113.106222 84.4874096,102.244328 C81.7197368,80.006897 80.1639992,66.1053819 79.8201968,60.539783 C79.3044932,52.1913846 78.6670555,15.6160605 70.028818,2.97842118 C66.6818922,2.75718239 64.3297537,3.13624913 63.8033697,6.95463695 C64.3728923,13.9815458 64.3728923,29.3217789 63.8033697,52.975336 C49.7789161,52.7987715 42.7666893,53.5199159 42.7666893,55.1387694 C43.1314131,54.8227279 31.062278,44.324283 6.55928415,23.6434346 Z"></path>
                    <polygon points="45.9966682 47.651475 48.3749673 53.7170747 55.779708 53.1588612 52.3102406 44.0977942" fill="#FACEBB" id="Path-39"></polygon>
                    <path transform="translate(47.534015, 39.879663) rotate(9.000000) translate(-47.534015, -39.879663)" fill="#003A8C" id="Oval" d="M46.7403294,48.9437635 C50.5773742,48.9197649 56.3609637,45.4432587 56.3903888,40.923591 C56.4195897,36.4039233 50.6949465,30.7917083 46.8579017,30.8155624 C43.0208569,30.8395691 38.7071042,33.6465766 38.6776406,38.1662443 C38.6484783,42.685912 42.9032847,48.9676257 46.7403294,48.9437635 Z"></path>
                    <path fill="#FACEBB" id="Path-42" d="M2.5362607,25.6850873 C1.08406531,24.2468386 0.241580365,22.9767625 0.00880585491,21.8748591 C-0.115790139,20.4704424 1.07967213,18.350235 3.73175954,19.8182699 C4.80191346,21.4325412 5.38194417,22.806078 5.47185167,23.9388803 L2.5362607,25.6850873 Z"></path>
                </g>
            </g>
        </g>
    </g>
</svg>